<?xml version="1.0" standalone="no"?>
<!DOCTYPE svg PUBLIC "-//W3C//DTD SVG 20010904//EN"
 "http://www.w3.org/TR/2001/REC-SVG-20010904/DTD/svg10.dtd">
<svg version="1.0" xmlns="http://www.w3.org/2000/svg"
 width="364.000000pt" height="136.000000pt" viewBox="0 0 364.000000 136.000000"
 preserveAspectRatio="xMidYMid meet">

<g transform="translate(0.000000,136.000000) scale(0.100000,-0.100000)"
fill="#000000" stroke="none">
<path d="M2852 1325 c-23 -19 -39 -50 -63 -123 -17 -53 -33 -99 -35 -101 -1
-2 -17 7 -34 19 -32 23 -31 23 -187 4 -32 -4 -58 -13 -69 -25 -21 -23 -32 -24
-56 -2 -11 10 -47 21 -81 26 -163 21 -147 15 -147 54 0 40 -22 87 -58 126 -20
21 -35 27 -66 27 -61 0 -109 -38 -150 -119 l-18 -33 -17 28 c-30 49 -88 93
-148 110 -73 21 -188 14 -256 -15 -58 -25 -152 -111 -179 -164 -18 -37 -20
-38 -37 -23 -27 25 -81 30 -123 13 -23 -10 -52 -13 -82 -10 -37 5 -53 2 -74
-14 l-28 -20 -34 28 c-27 23 -44 29 -83 29 -26 0 -56 -4 -65 -9 -9 -5 -40 -11
-69 -13 l-51 -5 -19 41 c-23 54 -87 122 -138 149 -33 18 -57 22 -135 22 -117
0 -164 -19 -250 -101 -69 -65 -100 -123 -100 -182 0 -53 38 -131 79 -164 l30
-23 -14 -55 c-30 -112 -18 -171 51 -257 40 -49 86 -67 158 -61 65 6 114 29
176 85 l49 44 32 -36 c42 -47 78 -65 134 -65 48 0 95 19 132 53 l22 20 41 -37
c48 -43 100 -49 136 -15 l23 21 27 -21 c55 -43 122 -25 200 54 l53 55 15 -28
15 -29 -72 -50 c-149 -104 -207 -116 -290 -63 -59 37 -76 37 -110 2 -34 -35
-34 -65 -2 -138 97 -220 274 -334 520 -334 154 0 273 36 373 111 l52 40 43
-34 c159 -129 439 -156 645 -62 78 36 184 143 227 228 48 95 46 122 -14 189
-31 35 -50 35 -104 1 -62 -39 -124 -42 -189 -9 -29 15 -64 36 -77 47 l-24 20
21 21 22 22 22 -21 c36 -33 63 -43 113 -43 49 0 108 25 138 58 17 19 18 19 56
-19 32 -33 45 -39 79 -39 49 0 89 14 118 41 l22 21 42 -28 c58 -38 156 -45
214 -15 39 20 39 20 64 1 33 -26 122 -27 179 -1 82 38 213 190 213 248 0 54
-60 133 -101 133 -15 0 -12 10 17 57 53 88 47 146 -20 221 -25 27 -37 32 -75
32 -28 0 -59 -8 -78 -20 -30 -18 -86 -85 -96 -113 -2 -7 -16 -1 -36 16 -18 15
-44 30 -57 33 -28 7 -98 1 -128 -12 -16 -6 -18 -4 -12 12 20 50 18 85 -5 130
-30 60 -65 84 -122 84 -34 0 -53 -6 -75 -25z m135 -37 c29 -27 29 -38 -2 -128
-22 -66 -23 -75 -10 -90 8 -9 15 -25 15 -35 0 -16 3 -15 28 8 34 33 91 57 134
57 69 0 128 -66 128 -142 0 -46 16 -19 31 52 21 107 77 170 150 170 77 0 91
-70 33 -165 -37 -62 -37 -63 -18 -158 l6 -29 19 21 c11 12 26 21 34 21 19 0
45 -28 45 -50 0 -24 -74 -133 -113 -166 -78 -66 -183 -84 -233 -40 l-28 23
-44 -23 c-76 -40 -159 -30 -218 27 l-30 29 -25 -26 c-48 -52 -128 -69 -169
-36 -17 13 -24 32 -28 70 -4 51 -5 52 -20 30 -49 -74 -116 -118 -179 -118 -43
0 -96 28 -113 60 -11 20 -12 20 -55 -17 -24 -21 -44 -44 -45 -51 0 -16 -22
-11 -28 6 -2 7 21 36 52 66 40 38 56 61 56 80 0 26 0 26 -34 -12 -19 -20 -37
-34 -40 -31 -4 3 17 77 45 164 56 172 56 188 1 193 -26 3 -34 -2 -43 -22 l-12
-25 -16 32 c-33 67 -124 40 -189 -57 -63 -94 -88 -259 -49 -319 17 -26 17 -27
-2 -27 -11 0 -22 4 -26 10 -3 5 -26 -4 -52 -20 -26 -17 -60 -30 -75 -30 -40 0
-78 40 -78 82 l0 33 -21 -30 c-31 -43 -75 -76 -92 -69 -11 4 -1 19 37 57 95
95 103 222 17 273 l-29 17 37 28 c42 30 81 99 81 143 0 41 -28 81 -74 107 -33
19 -56 24 -121 24 -89 0 -127 -12 -196 -61 -48 -35 -99 -115 -99 -156 0 -13 7
-34 16 -46 19 -28 64 -30 64 -4 0 35 31 108 61 145 57 69 137 94 199 62 52
-27 52 -94 -1 -158 -28 -34 -89 -76 -89 -61 0 3 12 40 27 81 l27 76 -23 18
c-48 39 -71 20 -116 -100 -46 -121 -95 -305 -95 -355 0 -27 7 -47 22 -63 l21
-23 -26 0 c-56 0 -64 72 -23 224 14 54 26 100 26 102 0 2 -13 4 -29 4 -43 0
-60 9 -76 41 -21 39 -18 76 9 134 27 59 89 118 154 147 72 33 210 32 276 -2
60 -30 86 -63 93 -117 7 -53 -12 -107 -53 -153 -31 -34 -33 -39 -18 -51 10 -8
23 -27 30 -44 11 -27 13 -28 20 -10 47 131 67 173 87 184 19 10 22 18 19 55
-7 81 57 166 124 166 40 0 64 -29 64 -77 0 -44 -14 -76 -53 -120 -26 -30 -32
-44 -28 -67 l6 -29 27 35 c46 60 135 86 191 56 12 -6 39 -10 60 -9 23 2 48 -4
64 -14 23 -15 25 -22 20 -64 l-5 -46 18 35 c30 58 69 87 125 94 151 19 139 20
171 -12 47 -48 63 -34 107 102 22 66 45 120 55 126 30 17 84 11 109 -12z
m-2512 -25 c76 -39 115 -103 123 -199 l5 -61 34 37 c35 40 29 38 178 56 46 5
53 3 78 -21 14 -15 29 -42 33 -61 l6 -34 22 43 c25 50 61 67 106 50 24 -9 36
-7 69 9 53 26 96 17 122 -25 25 -43 24 -89 -6 -177 -14 -40 -25 -76 -25 -79 0
-3 12 10 28 28 30 36 66 40 86 8 13 -21 -14 -78 -71 -147 -77 -95 -143 -122
-193 -82 -23 19 -25 27 -24 99 l0 78 -20 -81 c-12 -45 -27 -89 -35 -98 -37
-44 -131 9 -131 75 l0 33 -36 -43 c-113 -132 -284 -93 -284 65 l0 36 -41 -60
c-103 -155 -278 -201 -353 -93 -17 25 -26 50 -26 77 0 44 56 257 89 342 12 29
17 51 13 48 -9 -5 -34 -62 -48 -111 -15 -50 -92 -47 -119 5 -51 99 48 247 198
296 59 19 172 12 222 -13z m1759 -322 c-3 -95 -81 -266 -112 -247 -45 27 54
320 102 303 6 -2 10 -27 10 -56z m-584 -51 c12 -12 20 -33 20 -53 0 -45 -45
-132 -84 -162 -34 -26 -96 -44 -96 -29 0 15 48 208 59 237 9 22 17 27 46 27
22 0 43 -8 55 -20z m507 -267 c-3 -3 -11 -2 -17 2 -9 6 -9 10 1 16 14 8 27 -7
16 -18z m-516 -48 c24 -9 71 -32 103 -52 l60 -36 35 22 c131 81 229 99 334 63
31 -11 103 -51 159 -88 156 -103 210 -111 311 -47 30 19 45 23 56 16 26 -16
24 -40 -8 -108 -78 -168 -247 -265 -462 -265 -149 0 -287 47 -379 128 l-45 40
-40 -40 c-79 -78 -227 -128 -380 -128 -210 0 -370 91 -455 259 -53 106 -28
144 58 90 92 -57 154 -44 307 62 133 93 243 120 346 84z m169 -37 c0 -5 -9 -4
-20 2 -11 6 -18 15 -14 21 6 11 34 -7 34 -23z"/>
<path d="M2893 1268 c-4 -7 -26 -65 -48 -128 -31 -90 -44 -116 -60 -118 -43
-8 -61 -62 -20 -62 22 0 23 -3 15 -22 -22 -56 -51 -168 -57 -221 -7 -67 11
-97 58 -97 43 0 113 59 117 98 3 33 -6 40 -25 21 -16 -16 -33 -2 -33 28 0 14
10 63 22 108 20 76 24 84 50 89 18 4 32 15 38 31 16 42 13 58 -10 52 -27 -7
-26 2 11 110 27 76 30 95 19 108 -15 18 -66 20 -77 3z"/>
<path d="M2017 1249 c-43 -25 -73 -133 -43 -158 45 -37 130 72 112 144 -7 27
-36 33 -69 14z"/>
<path d="M3407 1130 c-34 -27 -52 -61 -66 -128 -6 -29 -27 -85 -46 -126 -39
-83 -40 -86 -22 -86 6 0 23 21 37 47 l25 47 3 -70 c4 -106 -24 -158 -67 -120
-22 20 -37 20 -45 0 -7 -20 9 -50 34 -64 30 -16 87 -12 129 10 41 21 123 106
148 153 27 53 -1 49 -42 -5 -36 -47 -40 -50 -42 -27 -2 13 -8 65 -14 114 l-11
90 37 60 c46 76 46 118 -1 123 -19 2 -40 -5 -57 -18z"/>
<path d="M2589 1051 c-18 -15 -27 -16 -41 -7 -60 37 -158 -141 -158 -287 0
-116 73 -167 169 -118 45 24 83 71 118 149 14 31 32 64 40 73 11 13 12 26 4
60 -6 24 -11 60 -11 80 0 22 -7 42 -18 52 -25 23 -74 21 -103 -2z m31 -102 c0
-46 -13 -57 -34 -27 -19 27 -21 59 -4 76 19 19 38 -6 38 -49z m-46 -160 c-29
-64 -66 -105 -85 -94 -16 11 -6 96 21 167 l21 58 35 -36 34 -37 -26 -58z"/>
<path d="M3085 1051 c-108 -49 -187 -245 -142 -353 43 -102 200 -104 252 -3
11 22 31 45 43 51 16 8 20 14 12 19 -6 4 -21 -2 -33 -13 -37 -34 -91 -62 -119
-62 -33 0 -58 32 -58 75 0 29 1 30 43 27 130 -9 220 168 128 250 -37 33 -69
35 -126 9z m78 -90 c0 -17 -13 -47 -28 -67 -27 -35 -70 -63 -81 -51 -9 9 35
100 64 130 32 34 47 30 45 -12z"/>
<path d="M1915 1027 c-24 -37 -72 -189 -86 -272 -16 -94 -7 -129 36 -133 43
-4 105 49 105 89 0 23 -4 29 -17 27 -31 -5 -26 35 18 167 36 106 41 128 28
136 -27 17 -68 10 -84 -14z"/>
<path d="M2894 873 c-29 -105 -28 -100 -11 -83 8 8 19 36 26 61 6 26 13 54 17
63 3 9 1 16 -5 16 -6 0 -18 -26 -27 -57z"/>
<path d="M3297 753 c-4 -3 -7 -13 -7 -22 1 -13 3 -13 11 2 11 19 8 33 -4 20z"/>
<path d="M270 1247 c-69 -19 -136 -71 -170 -130 -33 -58 -37 -92 -14 -125 21
-30 64 -30 64 1 0 40 46 121 93 164 71 66 146 70 190 11 47 -64 27 -235 -44
-377 -54 -109 -139 -181 -139 -118 0 32 62 254 99 356 37 100 38 117 10 131
-30 17 -64 5 -78 -27 -50 -107 -131 -382 -131 -442 0 -17 13 -41 34 -64 29
-32 40 -37 77 -37 203 0 387 384 275 574 -46 78 -158 114 -266 83z"/>
<path d="M769 1051 c-18 -15 -27 -16 -41 -7 -60 37 -158 -141 -158 -287 0
-116 73 -167 169 -118 48 25 81 68 129 170 36 77 37 84 31 151 -4 46 -12 77
-24 90 -23 26 -75 26 -106 1z m31 -102 c0 -46 -13 -57 -34 -27 -19 27 -21 59
-4 76 19 19 38 -6 38 -49z m-46 -160 c-29 -64 -66 -105 -85 -94 -16 11 -6 96
21 167 l21 58 35 -36 34 -37 -26 -58z"/>
<path d="M1120 1034 c-28 -25 -40 -32 -40 -21 0 22 -36 40 -65 33 -26 -7 -41
-38 -85 -186 -43 -147 -48 -192 -21 -219 13 -13 32 -21 43 -19 18 2 26 19 47
103 27 101 68 190 103 221 31 29 33 7 4 -92 -37 -128 -44 -195 -21 -217 25
-26 57 -20 102 18 38 32 105 122 119 159 12 30 -24 17 -45 -17 -31 -50 -59
-73 -73 -59 -11 11 -4 43 45 213 17 59 -10 119 -54 119 -10 0 -37 -16 -59 -36z"/>
<path d="M1470 551 c-40 -13 -90 -40 -165 -91 -166 -112 -238 -123 -339 -55
-20 13 -36 20 -36 14 0 -28 77 -153 115 -188 115 -106 294 -145 480 -106 96
21 170 59 233 121 l52 53 45 -48 c56 -60 122 -96 221 -121 275 -70 538 50 609
278 l7 23 -39 -25 c-21 -14 -59 -30 -86 -37 -69 -17 -118 0 -258 92 -76 49
-137 81 -170 89 -96 23 -182 1 -286 -72 l-41 -30 -91 52 c-81 47 -99 53 -159
56 -37 2 -78 0 -92 -5z"/>
</g>
</svg>
